<?xml version="1.0" encoding="utf-8" ?>
<svg xmlns="http://www.w3.org/2000/svg" xmlns:xlink="http://www.w3.org/1999/xlink" width="1024" height="1024" viewBox="0 0 1024 1024">
	<path transform="scale(2 2)" d="M171.854 436.615L150.901 419.391C129.564 400.808 110.37 380.257 92.875 358.035L78.875 339.505L52.6702 295.639C37.2428 265.274 27.6426 232.669 25.375 198.641C20.3886 123.815 76.0944 49.1978 153.305 44.3578C183.445 42.4684 214.355 51.0632 238.762 68.9531C245.136 73.6253 250.753 79.353 256.681 84.5678C257.965 83.6075 259.037 81.9474 260.166 80.7678C282.495 57.4463 316.038 44.825 347.991 44.1172C417.671 43.1254 476.392 99.7296 485.54 167.749C489.849 199.782 482.841 234.003 472.284 264.345L466.81 279.307C463.258 287.77 458.928 296.05 454.551 304.111L442.066 325.971C405.83 383.786 347.279 438.688 287.251 472.123L275.073 478.745C255.608 488.903 246.602 484.097 227.821 473.732C208.068 462.832 189.702 450.393 171.854 436.615ZM224.338 151.849C205.796 153.722 190.506 166.447 186.182 184.586C185.546 187.252 185.156 189.98 184.413 192.621C169.35 191.225 158.184 190.871 145.384 201.449C130.067 214.106 126.385 240.925 139.588 256.346C145.648 263.423 158.335 269.777 161.943 275.688C166.717 283.509 161.798 292.19 160.171 300.087C154.007 329.994 175.905 359.256 206.445 361.159C229.621 362.603 242.297 343.59 263.546 348.555C271.226 350.349 277.924 355.141 285.352 357.765C323.969 370.789 358.945 336.632 350.734 298.069C349.596 292.725 346.642 286.811 347.936 281.305C350.539 270.231 362.779 266.168 369.925 258.72C394.556 233.051 372.697 187.022 334.704 192.283C332.306 192.615 329.857 193.17 327.445 193.329C325.317 169.138 306.303 149.744 281.137 151.966C273.689 152.623 267.417 155.518 260.735 158.549C255.274 161.025 253.578 159.48 248.476 157.134C241.142 153.762 232.57 150.705 224.338 151.849Z"/>
	<path transform="scale(2 2)" d="M228.402 227.703C201.121 228.461 197.677 178.971 224.897 176.099C242.526 174.85 246.73 188.954 246.794 203.774C246.855 217.74 243.515 226.032 228.402 227.703Z"/>
	<path transform="scale(2 2)" d="M286.811 227.68C276.201 228.712 266.324 221.919 265.263 210.993C263.867 196.62 265.563 177.667 283.538 176.1C311.686 174.545 312.719 223.325 286.811 227.68Z"/>
	<path transform="scale(2 2)" d="M181.154 261.436C171.382 262.557 167.001 258.22 161.168 251.078C149.914 237.3 150.573 218.168 169.736 215.592C195.744 212.363 211.157 256.105 181.154 261.436Z"/>
	<path transform="scale(2 2)" d="M335.043 261.913C325.041 262.865 315.361 256.305 313.665 246.175C311.502 233.26 322.093 218.051 335.068 215.817C354.02 214.136 362.998 230.801 353.146 246.059C349.214 252.148 342.251 260.397 335.043 261.913Z"/>
	<path transform="scale(2 2)" d="M261.56 321.551C236.847 318.019 227.141 334.354 209.96 335.594C182.731 337.558 171.615 298.088 195.995 283.588C201.116 280.541 206.364 278.712 210.229 273.896C215.273 267.61 215.977 259.155 221.449 253.136C229.001 244.828 238.422 242.134 249.143 241.607C267.413 240.621 285.035 240.95 294.575 260.102C297.283 265.538 298.921 271.541 303.403 275.894C309.067 281.393 317.459 283.004 322.376 289.284C339.961 311.744 317.556 344.794 290.181 332.75C278.784 327.736 275.131 323.323 261.56 321.551Z"/>
</svg>
